<?xml version="1.0" standalone="no"?>
<!DOCTYPE svg PUBLIC "-//W3C//DTD SVG 20010904//EN"
 "http://www.w3.org/TR/2001/REC-SVG-20010904/DTD/svg10.dtd">
<svg version="1.0" xmlns="http://www.w3.org/2000/svg"
 width="700.000000pt" height="700.000000pt" viewBox="0 0 700.000000 700.000000"
 preserveAspectRatio="xMidYMid meet">
<metadata>
Created by potrace 1.11, written by Peter Selinger 2001-2013
</metadata>
<g transform="translate(0.000000,700.000000) scale(0.100000,-0.100000)"
fill="#000000" stroke="none">
<path d="M5047 6994 c-1 -1 -40 -4 -87 -8 -47 -4 -96 -8 -110 -11 -14 -2 -38
-6 -55 -9 -92 -14 -119 -20 -215 -42 -701 -166 -1328 -620 -1598 -1159 -39
-79 -96 -232 -107 -290 -32 -167 -47 -280 -61 -440 -8 -93 -8 -420 0 -515 3
-36 8 -96 11 -135 3 -38 7 -81 10 -95 2 -14 7 -50 10 -80 4 -30 11 -84 16
-120 6 -36 13 -78 15 -95 2 -16 6 -41 9 -55 5 -23 17 -94 30 -165 5 -28 8 -47
20 -105 2 -14 7 -41 10 -60 3 -19 10 -51 15 -70 5 -19 11 -51 14 -70 3 -19 12
-71 20 -115 68 -364 46 -491 -116 -669 -15 -17 -16 -22 -4 -35 7 -9 22 -27 32
-40 10 -13 24 -29 31 -36 55 -58 199 -323 234 -430 7 -22 17 -45 21 -51 5 -7
61 -10 170 -8 183 3 268 8 443 28 124 15 491 107 620 157 327 125 473 268 584
572 l21 57 -48 1 c-88 1 -187 7 -227 13 -117 18 -120 19 -235 57 -74 25 -170
71 -256 124 l-59 37 60 -7 c33 -3 85 -8 115 -11 30 -3 66 -7 80 -9 96 -18 494
-25 658 -12 89 7 258 33 272 42 4 2 21 7 39 10 135 24 479 193 465 228 -5 13
-112 87 -161 111 -96 48 -246 54 -396 16 -47 -11 -93 -22 -103 -25 -11 -2 -53
-11 -94 -20 -88 -20 -182 -21 -254 -4 -65 15 -160 78 -209 137 -54 67 -117
196 -117 241 0 61 50 119 106 122 65 4 111 -36 143 -121 28 -73 53 -113 88
-138 25 -18 41 -20 109 -17 81 3 102 6 214 31 141 32 268 51 320 48 246 -14
399 -82 568 -250 l43 -43 140 -19 139 -19 53 56 c79 85 129 148 187 235 53 79
147 253 167 311 6 17 25 66 41 111 25 68 62 199 78 279 36 176 38 205 39 520
0 176 -3 345 -7 375 -53 390 -194 772 -360 975 -181 220 -368 371 -611 495
-153 77 -353 146 -507 174 -14 2 -36 7 -50 10 -24 5 -55 9 -170 22 -52 6 -238
12 -243 8z m-1352 -821 c-67 -27 -196 -117 -271 -190 -93 -89 -144 -155 -205
-269 -28 -52 -53 -94 -55 -94 -8 0 6 243 17 283 33 124 126 222 244 260 64 20
78 22 205 25 l105 2 -40 -17z m2879 -236 c63 -42 72 -184 12 -207 -75 -28
-146 39 -146 138 0 77 68 112 134 69z m-398 -73 c56 -27 104 -88 104 -132 0
-47 -16 -69 -56 -81 -98 -28 -221 136 -154 207 25 26 59 28 106 6z m-1954 -53
c237 -65 454 -215 608 -421 85 -113 165 -305 185 -445 67 -463 -215 -874 -658
-959 -491 -94 -1053 281 -1172 784 -94 400 42 757 363 952 69 43 218 96 290
105 26 3 49 7 51 9 14 13 264 -6 333 -25z"/>
<path d="M3820 5589 c-208 -53 -364 -215 -414 -429 -16 -66 -17 -266 -2 -302
9 -20 145 -79 252 -109 104 -29 307 -32 399 -6 100 30 178 76 238 141 42 46
94 161 116 256 41 173 49 402 10 270 -48 -159 -247 -203 -369 -81 -68 68 -89
157 -55 238 8 19 15 37 15 40 0 10 -125 -2 -190 -18z"/>
<path d="M4660 5178 c0 -30 -45 -206 -67 -262 -32 -80 -98 -177 -163 -239
-100 -97 -184 -142 -340 -184 -87 -23 -336 -24 -430 -1 -36 9 -66 15 -68 14
-1 -2 23 -28 55 -59 170 -164 352 -247 556 -252 242 -6 430 100 526 297 75
153 88 320 41 496 -35 130 -110 259 -110 190z"/>
<path d="M1630 4294 c-36 -8 -81 -17 -100 -20 -133 -22 -458 -152 -453 -180 1
-7 7 -40 13 -75 5 -35 12 -75 15 -89 2 -14 12 -64 21 -112 l17 -88 252 0 253
0 8 58 c4 31 8 59 9 62 1 3 5 30 9 60 5 30 10 64 12 75 2 11 6 36 9 55 3 19 7
46 9 60 2 14 10 59 16 100 6 41 14 83 16 93 6 21 -14 21 -106 1z"/>
<path d="M1966 4264 c-4 -27 -10 -65 -12 -84 -3 -19 -7 -46 -9 -60 -3 -14 -9
-61 -15 -105 -6 -44 -18 -126 -26 -182 l-15 -103 133 -260 c73 -143 136 -260
140 -260 4 0 69 42 145 94 76 51 201 136 278 188 104 70 140 99 139 113 -2 25
-12 92 -19 125 -6 30 -10 51 -35 195 -11 61 -22 130 -25 155 -4 24 -9 48 -12
53 -13 22 -217 100 -338 131 -95 24 -135 30 -256 42 l-66 7 -7 -49z"/>
<path d="M814 3878 c-130 -135 -262 -312 -367 -493 -41 -71 -142 -278 -160
-327 -6 -17 11 -18 267 -18 l274 0 7 43 c4 23 8 53 10 67 6 38 46 282 50 307
26 152 26 168 5 313 -11 79 -20 148 -20 152 0 18 -18 5 -66 -44z"/>
<path d="M1145 3501 c-3 -6 -19 -94 -30 -166 -7 -50 -14 -93 -20 -125 -3 -14
-7 -38 -9 -55 -3 -16 -12 -73 -21 -125 l-15 -95 34 -135 c24 -96 38 -134 48
-132 7 2 47 24 88 49 85 52 387 208 470 242 30 12 64 27 75 32 11 5 59 23 107
41 l87 33 -111 222 -111 221 -294 -1 c-162 0 -296 -3 -298 -6z"/>
<path d="M2685 3280 c-87 -55 -84 -57 44 -26 45 11 46 12 41 44 l-5 33 -80
-51z"/>
<path d="M2790 3017 c-3 -3 -33 -8 -68 -11 -310 -32 -767 -178 -1118 -356
-182 -93 -506 -289 -604 -366 -8 -7 -91 -69 -184 -139 -149 -112 -339 -264
-416 -331 -14 -13 -35 -31 -46 -41 -335 -286 -344 -295 -339 -332 2 -20 7 -67
10 -106 4 -38 9 -78 11 -90 2 -11 7 -46 11 -78 3 -31 9 -57 12 -57 3 1 26 28
51 62 60 81 224 247 330 332 128 103 443 307 714 463 50 29 258 136 461 239
424 213 479 243 705 372 262 150 431 287 466 378 14 38 17 73 4 61z"/>
<path d="M168 2781 c-20 -51 -80 -275 -92 -346 -3 -16 -8 -41 -11 -55 -11 -54
-34 -198 -40 -255 -4 -33 -9 -73 -11 -90 -6 -50 -13 -235 -9 -235 2 0 25 18
52 41 26 23 57 48 68 58 71 59 271 227 275 231 32 35 312 247 508 386 2 1 -7
39 -19 85 -11 46 -22 89 -23 94 -11 52 -18 83 -22 96 -4 15 -38 17 -335 17
l-331 -1 -10 -26z"/>
<path d="M2629 2491 c-139 -92 -300 -181 -601 -332 l-337 -169 -11 -43 c-6
-23 -13 -48 -15 -55 -12 -36 -20 -117 -19 -199 1 -76 6 -99 25 -134 37 -67
123 -112 250 -133 34 -6 42 -2 125 70 141 122 269 200 428 264 82 32 79 31
211 59 114 24 140 28 245 37 47 3 87 8 88 9 2 2 -6 43 -18 92 -21 87 -39 132
-106 266 -59 118 -187 297 -213 297 -4 0 -27 -13 -52 -29z"/>
<path d="M4280 1968 c-14 -5 -68 -19 -120 -30 -126 -26 -119 -25 -170 -32 -25
-3 -56 -8 -70 -11 -57 -12 -202 -23 -390 -31 -85 -4 -173 -8 -195 -9 -22 -2
-52 -3 -67 -4 -22 -1 -26 -5 -22 -23 10 -47 4 -206 -10 -273 -21 -97 -47 -146
-108 -199 -63 -56 -232 -141 -308 -156 -218 -42 -329 -54 -515 -54 -116 0
-298 9 -341 18 -12 2 -45 7 -74 11 -129 16 -227 54 -320 124 -137 103 -191
255 -166 473 l8 67 -74 -42 c-40 -23 -74 -45 -76 -49 -2 -5 -8 -8 -14 -8 -5 0
-23 -10 -40 -21 l-30 -22 50 -51 c196 -203 350 -476 386 -689 4 -20 12 -37 19
-38 65 -5 464 14 552 26 17 3 57 7 90 11 33 3 69 7 80 8 100 12 145 19 175 26
19 5 53 11 75 14 37 5 52 7 115 21 14 3 35 7 47 9 70 14 307 81 423 121 74 26
207 82 295 125 301 147 520 307 693 506 50 58 137 182 131 188 -2 2 -15 -1
-29 -6z"/>
<path d="M4550 1940 c0 -19 -108 -184 -173 -266 -36 -44 -107 -120 -159 -169
-128 -122 -212 -184 -433 -316 l-30 -18 71 -70 c68 -66 145 -115 195 -125 13
-2 42 -9 64 -15 22 -5 70 -13 106 -16 l66 -6 56 73 c117 153 285 297 455 390
39 22 72 42 72 44 0 10 -51 137 -81 199 -74 156 -209 347 -209 295z"/>
<path d="M2917 1624 c-1 -1 -29 -4 -62 -7 -125 -12 -297 -58 -390 -104 -47
-24 -165 -104 -165 -112 0 -4 26 -6 58 -5 127 6 238 14 262 19 14 3 41 8 60
11 73 12 184 45 228 66 41 21 122 106 122 129 0 7 -104 9 -113 3z"/>
<path d="M824 1489 c-336 -225 -526 -421 -668 -689 -58 -111 -126 -272 -126
-299 0 -16 53 -71 98 -103 22 -15 28 -14 135 37 121 57 228 94 371 126 152 35
444 33 616 -4 70 -15 93 -21 149 -38 35 -10 65 -19 68 -19 6 0 -2 150 -12 234
-29 257 -185 557 -401 772 -40 41 -78 74 -84 74 -5 0 -71 -41 -146 -91z"/>
<path d="M4815 1159 c-72 -46 -235 -192 -235 -210 0 -10 57 0 111 20 50 19
112 60 172 112 36 32 38 37 35 82 l-3 47 -80 -51z"/>
<path d="M3005 879 c-85 -22 -247 -57 -295 -63 -19 -3 -48 -7 -65 -10 -63 -10
-182 -26 -240 -31 -33 -3 -85 -8 -115 -11 -64 -7 -92 -9 -255 -19 -128 -7
-263 -14 -306 -14 -25 -1 -25 -3 -27 -79 -1 -43 -4 -87 -6 -98 -2 -10 -7 -39
-11 -63 -4 -24 -14 -59 -21 -77 -20 -47 -18 -56 19 -99 30 -35 47 -42 185 -85
l152 -47 33 24 c145 110 372 215 510 237 182 29 362 26 498 -10 31 -7 61 -14
67 -14 31 0 37 265 8 395 -9 39 -16 73 -16 78 0 11 -37 6 -115 -14z"/>
<path d="M818 355 c-2 -2 -30 -6 -64 -9 -74 -7 -229 -47 -307 -79 -58 -23 -58
-24 -35 -39 35 -22 186 -84 248 -101 169 -48 253 -66 430 -92 110 -16 402 -28
443 -17 22 6 22 24 -4 75 -46 91 -90 139 -153 167 -68 31 -179 63 -276 81 -57
10 -275 21 -282 14z"/>
<path d="M2615 226 c-109 -26 -305 -106 -305 -126 0 -4 10 -10 23 -13 12 -2
60 -15 107 -27 137 -37 302 -57 445 -55 190 2 227 26 196 125 l-17 55 -84 23
c-108 29 -280 38 -365 18z"/>
</g>
</svg>
